<svg width="395" height="138" viewBox="0 0 395 138" fill="none" xmlns="http://www.w3.org/2000/svg">
<rect width="395" height="138" fill="#1F2421"/>
<path fill-rule="evenodd" clip-rule="evenodd" d="M111.311 99.36H116.835C116.835 99.36 124.263 86.296 139.182 60.1995C139.449 60.4668 139.765 60.6509 140.131 60.752C140.515 60.856 140.895 60.948 141.271 61.028C141.655 61.108 141.979 61.228 142.243 61.388C142.515 61.548 142.651 61.768 142.651 62.048C142.651 62.632 142.123 62.924 141.067 62.924C140.299 62.924 139.535 62.748 138.775 62.396V63.428C139.455 63.756 140.251 63.92 141.163 63.92C142.011 63.92 142.655 63.744 143.095 63.392C143.543 63.032 143.767 62.56 143.767 61.976C143.767 61.52 143.631 61.156 143.359 60.884C143.095 60.612 142.771 60.424 142.387 60.32C142.003 60.216 141.619 60.124 141.235 60.044C140.851 59.964 140.523 59.844 140.251 59.684C140 59.5243 139.868 59.3033 139.856 59.0208C139.996 58.7751 140.137 58.5282 140.279 58.2803C140.536 58.1441 140.911 58.076 141.403 58.076C142.091 58.076 142.783 58.228 143.479 58.532V57.512C142.767 57.224 142.023 57.08 141.247 57.08C141.149 57.08 141.053 57.0828 140.961 57.0883C143.571 52.5227 146.394 47.5877 149.43 42.2832L149.817 41.4552C150.314 40.4616 149.927 38.64 147.22 38.64H127.884L133.409 0H127.884C122.06 10.2417 116.825 19.4323 112.185 27.5796C105.634 39.0819 100.268 48.5044 96.0964 55.8684C96.0319 55.7115 95.9665 55.5554 95.9 55.4H94.52C93.392 58.032 92.552 60.832 92 63.8H93.176C93.312 63.064 93.44 62.452 93.56 61.964H96.86C96.98 62.508 97.104 63.12 97.232 63.8H98.408C98.2118 62.7488 97.9817 61.7221 97.7176 60.72H100.336V63.8H101.464V60.896H102.76C103.242 60.896 103.672 60.8373 104.048 60.72H109.992V62.792H107.796V63.8H113.316V62.792H111.12V60.72H116.835L111.311 99.36ZM111.12 60.72V56.396H113.316V55.4H107.796V56.396H109.992V60.72H111.12ZM104.048 60.72C104.452 60.5942 104.794 60.4008 105.076 60.14C105.62 59.628 105.892 58.908 105.892 57.98C105.892 57.156 105.64 56.52 105.136 56.072C104.632 55.624 103.92 55.4 103 55.4H100.336V60.72H104.048ZM96.5463 60.6564C96.8257 60.698 97.1425 60.72 97.4998 60.72H97.7176C97.2733 59.0332 96.7329 57.416 96.0964 55.8684C96.0241 55.996 95.9522 56.123 95.8806 56.2494C95.992 56.0414 96.0768 55.8688 95.4539 56.9813C95.373 56.7438 95.2897 56.5047 95.204 56.264C94.62 57.904 94.148 59.468 93.788 60.956H96.62C96.5959 60.8565 96.5713 60.7566 96.5463 60.6564ZM96.5463 60.6564C94.3203 60.3246 94.4679 58.7443 95.4005 57.0768C95.4189 57.044 95.4367 57.0121 95.4539 56.9813C95.8873 58.2533 96.2514 59.4783 96.5463 60.6564ZM140.961 57.0883C140.298 57.1279 139.778 57.3091 139.399 57.632C138.975 57.992 138.763 58.472 138.763 59.072C138.763 59.528 138.895 59.896 139.159 60.176C139.166 60.1839 139.174 60.1917 139.182 60.1995C139.405 59.8095 139.629 59.4166 139.856 59.0208C139.855 59.006 139.855 58.9911 139.855 58.976C139.855 58.6619 139.996 58.43 140.279 58.2803C140.505 57.8858 140.732 57.4885 140.961 57.0883ZM104.296 59.504C104.016 59.768 103.54 59.9 102.868 59.9H101.464V56.396H102.88C103.544 56.396 104.016 56.532 104.296 56.804C104.584 57.068 104.728 57.516 104.728 58.148C104.728 58.78 104.584 59.232 104.296 59.504ZM125.595 58.16H128.475V57.2H125.595V55.724H124.767L124.515 57.2L122.991 57.464V58.16H124.515V61.724C124.515 62.396 124.715 62.932 125.115 63.332C125.515 63.724 126.111 63.92 126.903 63.92C127.423 63.92 127.947 63.828 128.475 63.644V62.612C128.011 62.82 127.523 62.924 127.011 62.924C126.499 62.924 126.135 62.816 125.919 62.6C125.703 62.376 125.595 62.036 125.595 61.58V58.16ZM136.499 60.908C136.507 60.772 136.511 60.572 136.511 60.308C136.511 59.268 136.275 58.472 135.803 57.92C135.339 57.36 134.663 57.08 133.775 57.08C132.799 57.08 132.039 57.408 131.495 58.064C130.951 58.712 130.679 59.592 130.679 60.704C130.679 61.744 130.939 62.54 131.459 63.092C131.987 63.644 132.715 63.92 133.643 63.92C134.491 63.92 135.279 63.708 136.007 63.284V62.252C135.287 62.7 134.535 62.924 133.751 62.924C133.135 62.924 132.667 62.768 132.347 62.456C132.035 62.144 131.855 61.628 131.807 60.908H136.499ZM132.335 58.52C132.631 58.224 133.083 58.076 133.691 58.076C134.275 58.076 134.691 58.22 134.939 58.508C135.195 58.796 135.343 59.288 135.383 59.984H131.819C131.867 59.296 132.039 58.808 132.335 58.52ZM148.622 58.16H151.502V57.2H148.622V55.724H147.794L147.542 57.2L146.018 57.464V58.16H147.542V61.724C147.542 62.396 147.742 62.932 148.142 63.332C148.542 63.724 149.138 63.92 149.93 63.92C150.45 63.92 150.974 63.828 151.502 63.644V62.612C151.038 62.82 150.55 62.924 150.038 62.924C149.526 62.924 149.162 62.816 148.946 62.6C148.73 62.376 148.622 62.036 148.622 61.58V58.16ZM157.726 56.036V54.428H156.274V56.036H157.726ZM159.358 62.84H157.534V57.2H154.438V58.16H156.454V62.84H154.078V63.8H159.358V62.84ZM166.518 57.584C166.206 57.248 165.766 57.08 165.198 57.08C164.182 57.08 163.33 57.636 162.642 58.748L162.438 57.2H161.634V63.8H162.702V59.528C163.15 58.96 163.53 58.564 163.842 58.34C164.162 58.116 164.498 58.004 164.85 58.004C165.57 58.004 165.93 58.408 165.93 59.216V63.8H166.998V59.072C166.998 58.416 166.838 57.92 166.518 57.584ZM174.146 62.696C173.434 62.416 172.342 62.268 170.87 62.252L171.074 60.992C171.33 61.032 171.586 61.052 171.842 61.052C172.714 61.052 173.394 60.872 173.882 60.512C174.378 60.144 174.626 59.636 174.626 58.988C174.626 58.404 174.406 57.94 173.966 57.596L175.094 55.964H173.846L173.378 57.284C172.994 57.148 172.554 57.08 172.058 57.08C171.178 57.08 170.49 57.264 169.994 57.632C169.506 58 169.262 58.516 169.262 59.18C169.262 59.956 169.642 60.5 170.402 60.812L169.814 62.516L170.438 63.152C172.878 63.152 174.098 63.472 174.098 64.112C174.098 64.344 173.954 64.536 173.666 64.688C173.378 64.84 172.858 64.96 172.106 65.048C171.354 65.144 170.35 65.192 169.094 65.192V66.2C171.23 66.2 172.786 66.024 173.762 65.672C174.738 65.328 175.226 64.792 175.226 64.064C175.226 63.424 174.866 62.968 174.146 62.696ZM171.95 58.076C172.494 58.076 172.89 58.156 173.138 58.316C173.386 58.468 173.51 58.716 173.51 59.06C173.51 59.404 173.386 59.656 173.138 59.816C172.89 59.968 172.494 60.044 171.95 60.044C171.406 60.044 171.01 59.968 170.762 59.816C170.514 59.656 170.39 59.404 170.39 59.06C170.39 58.716 170.514 58.468 170.762 58.316C171.01 58.156 171.406 58.076 171.95 58.076ZM189.449 57.584C189.161 57.248 188.749 57.08 188.213 57.08C187.277 57.08 186.485 57.596 185.837 58.628V54.92H184.757V63.8H185.837V59.504C186.261 58.944 186.621 58.556 186.917 58.34C187.213 58.116 187.529 58.004 187.865 58.004C188.497 58.004 188.813 58.408 188.813 59.216V63.8H189.893V59.072C189.893 58.416 189.745 57.92 189.449 57.584ZM196.741 63.8H197.809L197.437 61.772V59.18C197.437 58.524 197.233 58.012 196.825 57.644C196.425 57.268 195.861 57.08 195.133 57.08C194.389 57.08 193.609 57.256 192.793 57.608V58.64C193.545 58.264 194.281 58.076 195.001 58.076C195.905 58.076 196.357 58.48 196.357 59.288V59.852C194.885 59.86 193.825 60.056 193.177 60.44C192.529 60.816 192.205 61.376 192.205 62.12C192.205 62.688 192.381 63.132 192.733 63.452C193.085 63.764 193.577 63.92 194.209 63.92C195.289 63.92 196.053 63.444 196.501 62.492L196.741 63.8ZM195.829 62.408C195.477 62.752 195.021 62.924 194.461 62.924C193.701 62.924 193.321 62.592 193.321 61.928C193.321 61.44 193.553 61.096 194.017 60.896C194.489 60.688 195.269 60.58 196.357 60.572V61.1C196.357 61.628 196.181 62.064 195.829 62.408ZM202.473 62.924C201.705 62.924 200.941 62.748 200.181 62.396V63.428C200.861 63.756 201.657 63.92 202.569 63.92C203.417 63.92 204.061 63.744 204.501 63.392C204.949 63.032 205.173 62.56 205.173 61.976C205.173 61.52 205.037 61.156 204.765 60.884C204.501 60.612 204.177 60.424 203.793 60.32C203.409 60.216 203.025 60.124 202.641 60.044C202.257 59.964 201.929 59.844 201.657 59.684C201.393 59.516 201.261 59.28 201.261 58.976C201.261 58.376 201.777 58.076 202.809 58.076C203.497 58.076 204.189 58.228 204.885 58.532V57.512C204.173 57.224 203.429 57.08 202.653 57.08C201.853 57.08 201.237 57.264 200.805 57.632C200.381 57.992 200.169 58.472 200.169 59.072C200.169 59.528 200.301 59.896 200.565 60.176C200.837 60.456 201.161 60.648 201.537 60.752C201.921 60.856 202.301 60.948 202.677 61.028C203.061 61.108 203.385 61.228 203.649 61.388C203.921 61.548 204.057 61.768 204.057 62.048C204.057 62.632 203.529 62.924 202.473 62.924ZM212.573 57.584C212.261 57.248 211.821 57.08 211.253 57.08C210.237 57.08 209.385 57.636 208.697 58.748L208.493 57.2H207.689V63.8H208.757V59.528C209.205 58.96 209.585 58.564 209.897 58.34C210.217 58.116 210.553 58.004 210.905 58.004C211.625 58.004 211.985 58.408 211.985 59.216V63.8H213.053V59.072C213.053 58.416 212.893 57.92 212.573 57.584ZM218.844 54.2H217.188V55.976H218.113L216.66 58.256H217.945L218.844 55.976V54.2ZM225.38 58.16H228.26V57.2H225.38V55.724H224.552L224.3 57.2L222.776 57.464V58.16H224.3V61.724C224.3 62.396 224.5 62.932 224.9 63.332C225.3 63.724 225.896 63.92 226.688 63.92C227.208 63.92 227.732 63.828 228.26 63.644V62.612C227.796 62.82 227.308 62.924 226.796 62.924C226.284 62.924 225.92 62.816 225.704 62.6C225.488 62.376 225.38 62.036 225.38 61.58V58.16ZM243.204 57.944C242.788 57.368 242.196 57.08 241.428 57.08C240.556 57.08 239.904 57.452 239.472 58.196V54.92H238.392V63.68C239.056 63.84 239.72 63.92 240.384 63.92C241.512 63.92 242.368 63.612 242.952 62.996C243.544 62.38 243.84 61.504 243.84 60.368C243.84 59.32 243.628 58.512 243.204 57.944ZM242.184 62.396C241.824 62.788 241.228 62.984 240.396 62.984C240.06 62.984 239.752 62.956 239.472 62.9V60.464C239.472 59.624 239.604 59.012 239.868 58.628C240.132 58.236 240.552 58.04 241.128 58.04C241.704 58.04 242.112 58.224 242.352 58.592C242.6 58.952 242.724 59.568 242.724 60.44C242.724 61.344 242.544 61.996 242.184 62.396ZM251.636 60.908C251.644 60.772 251.648 60.572 251.648 60.308C251.648 59.268 251.412 58.472 250.94 57.92C250.476 57.36 249.8 57.08 248.912 57.08C247.936 57.08 247.176 57.408 246.632 58.064C246.088 58.712 245.816 59.592 245.816 60.704C245.816 61.744 246.076 62.54 246.596 63.092C247.124 63.644 247.852 63.92 248.78 63.92C249.628 63.92 250.416 63.708 251.144 63.284V62.252C250.424 62.7 249.672 62.924 248.888 62.924C248.272 62.924 247.804 62.768 247.484 62.456C247.172 62.144 246.992 61.628 246.944 60.908H251.636ZM247.472 58.52C247.768 58.224 248.22 58.076 248.828 58.076C249.412 58.076 249.828 58.22 250.076 58.508C250.332 58.796 250.48 59.288 250.52 59.984H246.956C247.004 59.296 247.176 58.808 247.472 58.52ZM259.311 60.908C259.319 60.772 259.323 60.572 259.323 60.308C259.323 59.268 259.087 58.472 258.615 57.92C258.151 57.36 257.475 57.08 256.587 57.08C255.611 57.08 254.851 57.408 254.307 58.064C253.763 58.712 253.491 59.592 253.491 60.704C253.491 61.744 253.751 62.54 254.271 63.092C254.799 63.644 255.527 63.92 256.455 63.92C257.303 63.92 258.091 63.708 258.819 63.284V62.252C258.099 62.7 257.347 62.924 256.563 62.924C255.947 62.924 255.479 62.768 255.159 62.456C254.847 62.144 254.667 61.628 254.619 60.908H259.311ZM255.147 58.52C255.443 58.224 255.895 58.076 256.503 58.076C257.087 58.076 257.503 58.22 257.751 58.508C258.007 58.796 258.155 59.288 258.195 59.984H254.631C254.679 59.296 254.851 58.808 255.147 58.52ZM266.303 57.584C265.991 57.248 265.551 57.08 264.983 57.08C263.967 57.08 263.115 57.636 262.427 58.748L262.223 57.2H261.419V63.8H262.487V59.528C262.935 58.96 263.315 58.564 263.627 58.34C263.947 58.116 264.283 58.004 264.635 58.004C265.355 58.004 265.715 58.408 265.715 59.216V63.8H266.783V59.072C266.783 58.416 266.623 57.92 266.303 57.584ZM279.111 58.16H281.991V57.2H279.111V55.724H278.283L278.031 57.2L276.507 57.464V58.16H278.031V61.724C278.031 62.396 278.231 62.932 278.631 63.332C279.031 63.724 279.627 63.92 280.419 63.92C280.939 63.92 281.463 63.828 281.991 63.644V62.612C281.527 62.82 281.039 62.924 280.527 62.924C280.015 62.924 279.651 62.816 279.435 62.6C279.219 62.376 279.111 62.036 279.111 61.58V58.16ZM289.235 57.584C288.947 57.248 288.535 57.08 287.999 57.08C287.063 57.08 286.271 57.596 285.623 58.628V54.92H284.543V63.8H285.623V59.504C286.047 58.944 286.407 58.556 286.703 58.34C286.999 58.116 287.315 58.004 287.651 58.004C288.283 58.004 288.599 58.408 288.599 59.216V63.8H289.679V59.072C289.679 58.416 289.531 57.92 289.235 57.584ZM295.89 56.036V54.428H294.438V56.036H295.89ZM297.522 62.84H295.698V57.2H292.602V58.16H294.618V62.84H292.242V63.8H297.522V62.84ZM302.258 62.924C301.49 62.924 300.726 62.748 299.966 62.396V63.428C300.646 63.756 301.442 63.92 302.354 63.92C303.202 63.92 303.846 63.744 304.286 63.392C304.734 63.032 304.958 62.56 304.958 61.976C304.958 61.52 304.822 61.156 304.55 60.884C304.286 60.612 303.962 60.424 303.578 60.32C303.194 60.216 302.81 60.124 302.426 60.044C302.042 59.964 301.714 59.844 301.442 59.684C301.178 59.516 301.046 59.28 301.046 58.976C301.046 58.376 301.562 58.076 302.594 58.076C303.282 58.076 303.974 58.228 304.67 58.532V57.512C303.958 57.224 303.214 57.08 302.438 57.08C301.638 57.08 301.022 57.264 300.59 57.632C300.166 57.992 299.954 58.472 299.954 59.072C299.954 59.528 300.086 59.896 300.35 60.176C300.622 60.456 300.946 60.648 301.322 60.752C301.706 60.856 302.086 60.948 302.462 61.028C302.846 61.108 303.17 61.228 303.434 61.388C303.706 61.548 303.842 61.768 303.842 62.048C303.842 62.632 303.314 62.924 302.258 62.924ZM171.89 70.9C171.89 70.116 172.398 69.724 173.414 69.724C173.934 69.724 174.446 69.816 174.95 70V69.052C174.406 68.884 173.854 68.8 173.294 68.8C172.51 68.8 171.898 68.992 171.458 69.376C171.026 69.752 170.81 70.288 170.81 70.984V71.248H169.094V72.16H170.81V77.8H171.89V72.16H174.95V71.248H171.89V70.9ZM181.39 77.8H182.458L182.086 75.772V73.18C182.086 72.524 181.882 72.012 181.474 71.644C181.074 71.268 180.51 71.08 179.782 71.08C179.038 71.08 178.258 71.256 177.442 71.608V72.64C178.194 72.264 178.93 72.076 179.65 72.076C180.554 72.076 181.006 72.48 181.006 73.288V73.852C179.534 73.86 178.474 74.056 177.826 74.44C177.178 74.816 176.854 75.376 176.854 76.12C176.854 76.688 177.03 77.132 177.382 77.452C177.734 77.764 178.226 77.92 178.858 77.92C179.938 77.92 180.702 77.444 181.15 76.492L181.39 77.8ZM180.478 76.408C180.126 76.752 179.67 76.924 179.11 76.924C178.35 76.924 177.97 76.592 177.97 75.928C177.97 75.44 178.202 75.096 178.666 74.896C179.138 74.688 179.918 74.58 181.006 74.572V75.1C181.006 75.628 180.83 76.064 180.478 76.408ZM187.121 76.924C186.353 76.924 185.589 76.748 184.829 76.396V77.428C185.509 77.756 186.305 77.92 187.217 77.92C188.065 77.92 188.709 77.744 189.149 77.392C189.597 77.032 189.821 76.56 189.821 75.976C189.821 75.52 189.685 75.156 189.413 74.884C189.149 74.612 188.825 74.424 188.441 74.32C188.057 74.216 187.673 74.124 187.289 74.044C186.905 73.964 186.577 73.844 186.305 73.684C186.041 73.516 185.909 73.28 185.909 72.976C185.909 72.376 186.425 72.076 187.457 72.076C188.145 72.076 188.837 72.228 189.533 72.532V71.512C188.821 71.224 188.077 71.08 187.301 71.08C186.501 71.08 185.885 71.264 185.453 71.632C185.029 71.992 184.817 72.472 184.817 73.072C184.817 73.528 184.949 73.896 185.213 74.176C185.485 74.456 185.809 74.648 186.185 74.752C186.569 74.856 186.949 74.948 187.325 75.028C187.709 75.108 188.033 75.228 188.297 75.388C188.569 75.548 188.705 75.768 188.705 76.048C188.705 76.632 188.177 76.924 187.121 76.924ZM194.677 72.16H197.557V71.2H194.677V69.724H193.849L193.597 71.2L192.073 71.464V72.16H193.597V75.724C193.597 76.396 193.797 76.932 194.197 77.332C194.597 77.724 195.193 77.92 195.985 77.92C196.505 77.92 197.029 77.828 197.557 77.644V76.612C197.093 76.82 196.605 76.924 196.093 76.924C195.581 76.924 195.217 76.816 195.001 76.6C194.785 76.376 194.677 76.036 194.677 75.58V72.16ZM213.413 71.2H212.237L210.341 77.176L208.445 71.2H207.269L209.525 77.8H210.101C209.933 78.272 209.657 78.62 209.273 78.844C208.889 79.076 208.357 79.192 207.677 79.192V80.2C209.453 80.2 210.597 79.448 211.109 77.944L213.413 71.2ZM220.932 74.908C220.941 74.772 220.945 74.572 220.945 74.308C220.945 73.268 220.708 72.472 220.236 71.92C219.772 71.36 219.097 71.08 218.209 71.08C217.232 71.08 216.473 71.408 215.928 72.064C215.384 72.712 215.113 73.592 215.113 74.704C215.113 75.744 215.372 76.54 215.893 77.092C216.421 77.644 217.148 77.92 218.076 77.92C218.924 77.92 219.713 77.708 220.441 77.284V76.252C219.72 76.7 218.968 76.924 218.185 76.924C217.568 76.924 217.101 76.768 216.781 76.456C216.468 76.144 216.288 75.628 216.241 74.908H220.932ZM216.769 72.52C217.064 72.224 217.517 72.076 218.125 72.076C218.709 72.076 219.125 72.22 219.372 72.508C219.629 72.796 219.777 73.288 219.816 73.984H216.253C216.3 73.296 216.473 72.808 216.769 72.52ZM225.38 72.16H228.26V71.2H225.38V69.724H224.552L224.3 71.2L222.776 71.464V72.16H224.3V75.724C224.3 76.396 224.5 76.932 224.9 77.332C225.3 77.724 225.896 77.92 226.688 77.92C227.208 77.92 227.732 77.828 228.26 77.644V76.612C227.796 76.82 227.308 76.924 226.796 76.924C226.284 76.924 225.92 76.816 225.704 76.6C225.488 76.376 225.38 76.036 225.38 75.58V72.16Z" fill="#F2BA49"/>
</svg>
